<svg version="1.1" id="Layer_1" xmlns="http://www.w3.org/2000/svg" xmlns:xlink="http://www.w3.org/1999/xlink" x="0px" y="0px" viewBox="0 0 500 500" style="width: 162px;" xml:space="preserve" data-imageid="question-70-283da" imageName="Question" class="illustrations_image">
<style type="text/css">
	.st0_question-70-283da{fill:#855AF1;}
	.st1_question-70-283da{fill:url(#SVGID_1_);}
	.st2_question-70-283da{fill:url(#SVGID_00000137811919128012479810000015600801768037905813_);}
	.st3_question-70-283da{fill:#FF9E03;}
	.st4_question-70-283da{fill:#FFC50C;}
	.st5_question-70-283da{fill:#68E1FD;}
	.st6_question-70-283da{opacity:0.1;}
	.st7_question-70-283da{opacity:0.1;enable-background:new    ;}
	.st8_question-70-283da{fill:#C13127;}
	.st9_question-70-283da{fill:#EA5343;}
	.st10_question-70-283da{fill:#FFDDB0;}
	.st11_question-70-283da{fill:#42210B;}
</style>
<ellipse id="Base_question-70-283da" class="st0_question-70-283da" cx="242.6" cy="348.4" rx="199" ry="97.9"/>
<g id="Shadow_question-70-283da">
	
		<linearGradient id="SVGID_1_-question-70-283da" gradientUnits="userSpaceOnUse" x1="352.4419" y1="-3515.5564" x2="254.7119" y2="-3465.0564" gradientTransform="matrix(1 0 0 1 0 3908.1499)">
		<stop offset="0" style="stop-color:#743EE0"/>
		<stop offset="0.99" style="stop-color:#855AF1"/>
	</linearGradient>
	<path class="st1_question-70-283da" d="M235.6,432.2l84.3-31.6l34.9-3.4l3.8,1.9l1.2,5.8l-62,36.6C297.7,441.6,256.7,448,235.6,432.2z"/>
	
		<linearGradient id="SVGID_00000176722526040829427160000013729561982748435350_-question-70-283da" gradientUnits="userSpaceOnUse" x1="190.8573" y1="-3548.4153" x2="93.1273" y2="-3497.905" gradientTransform="matrix(1 0 0 1 0 3908.1499)">
		<stop offset="0" style="stop-color:#743EE0"/>
		<stop offset="0.99" style="stop-color:#855AF1"/>
	</linearGradient>
	<path style="fill:url(#SVGID_00000176722526040829427160000013729561982748435350_);" d="M72.4,396.2l93.1-46.4l26,11.5l3.8,1.9&#10;&#9;&#9;l3.2,8.9l-82,50.8C101,415.3,86.3,406.4,72.4,396.2z"/>
</g>
<g id="Question_Mark_question-70-283da">
	<path class="st3_question-70-283da" d="M141.4,187.7l-11.3,28.6l12.6,1.4c0,0,6.6-22.9,45-23.4S176.1,265.5,169,277s-11.1,31.3-9.8,45.7l24.3,8.9&#10;&#9;&#9;c0,0-4.2-32,5.5-44.2s36.5-60.5,31.6-80.4s-15.1-10.2-15.1-10.2"/>
	<path class="st4_question-70-283da" d="M183.6,331.5l22.7-9.5c0,0,0.2-9.3-0.7-24.3s29.1-58.6,33.8-79.9s-26.9-59.9-63.8-51.7&#10;&#9;&#9;c-42.1,9.2-45.6,50.3-45.6,50.3l19.8,9.8c0,0,17.8-37.9,43.1-32.3s22.9,36.5,22.9,36.5l-26.8,57&#10;&#9;&#9;C189.1,287.3,178.1,302.3,183.6,331.5z"/>
	<circle class="st4_question-70-283da" cx="183.4" cy="355.8" r="21.2"/>
	<path class="st3_question-70-283da" d="M176.6,353.4c0.6-7.7,5.6-14.3,12.1-18.4c-11.4-2.6-22.8,4.6-25.4,16s4.6,22.8,16,25.4c4.4,1,9,0.6,13.2-1.2&#10;&#9;&#9;C183.5,371.9,175.8,363.4,176.6,353.4z"/>
</g>
<g id="Bubble_question-70-283da">
	<path class="st5_question-70-283da targetColor" d="M92.8,133c-18.9-6.9-42.3,9.8-52.3,37.3s-2.9,55.4,16,62.2c1.5,0.5,3.1,0.9,4.6,1.2c4,14,17.7,10.2,17.7,10.2&#10;&#9;&#9;c-5.4-3.3-6.9-7.3-6.9-10.6c14.8-3.4,29.5-17.8,36.9-38.1C118.8,167.7,111.7,139.9,92.8,133z" style="fill: rgb(104, 225, 253);"/>
	<path class="st5_question-70-283da targetColor" d="M488.7,184.8c-2.1-10.8-11.4-18.7-22.4-19c-4.8-0.1-9.5,1.2-13.5,3.7l-0.7,0.2c0-0.2,0-0.5,0-0.7&#10;&#9;&#9;c-1-11.1-10.3-20.6-21.8-20.4c-5.5,0.2-10.7,2.3-14.7,6c-4.4,3.9-6.5,9.8-7.4,15.4c0,0.3-0.1,0.6-0.1,0.9&#10;&#9;&#9;c-4.3-0.4-8.7,0.4-12.7,2.2c-8.4,4-13.2,13.1-11.8,22.4c1.1,8.9,6.6,16.7,14.7,20.6c3.2,1.5,6.7,2.5,10.3,2.7&#10;&#9;&#9;c2.7,11.6,15,20.8,26.5,23.8c14.5,3.8,35.6,0.4,41.3-15.6c0.9-2.7,1.3-5.4,1.5-8.2c0.2-2.4-0.1-4.9-0.7-7.3c-0.3-1-0.8-2-1.3-2.9&#10;&#9;&#9;C484.9,204.6,490.3,194.8,488.7,184.8z" style="fill: rgb(104, 225, 253);"/>
	<path class="st5_question-70-283da targetColor" d="M389.2,222.3c-0.8-0.4-1.6-0.7-2.4-0.9c-1.5-0.4-3-0.4-4.5,0c-0.9,0.2-1.7,0.5-2.5,1c-0.8,0.4-1.5,1-2.2,1.6&#10;&#9;&#9;c-1.4,1.4-2.2,3.3-2.2,5.3c0,1.4,0.4,2.9,1.2,4.1c0.2,0.6,0.5,1.2,0.8,1.8c1.2,2,3.2,3.4,5.4,4c0.7,0.2,1.5,0.3,2.2,0.3&#10;&#9;&#9;c0.4,0,0.9-0.1,1.3-0.1c1.2-0.1,2.3-0.5,3.3-1.1c2-1.2,3.4-3.1,4-5.4C394.7,228.7,392.9,224.4,389.2,222.3z" style="fill: rgb(104, 225, 253);"/>
	<g class="st6_question-70-283da">
		<path d="M488.7,184.8c-2.1-10.8-11.4-18.7-22.4-19c-4.8-0.1-9.5,1.2-13.5,3.7l-0.7,0.2c0-0.2,0-0.5,0-0.7&#10;&#9;&#9;&#9;c-1-11.1-10.3-20.6-21.8-20.4c-5.5,0.2-10.7,2.3-14.7,6c-4.4,3.9-6.5,9.8-7.4,15.4c0,0.3-0.1,0.6-0.1,0.9&#10;&#9;&#9;&#9;c-4.3-0.4-8.7,0.4-12.7,2.2c-8.4,4-13.2,13.1-11.8,22.4c1.1,8.9,6.6,16.7,14.7,20.6c3.2,1.5,6.7,2.5,10.3,2.7&#10;&#9;&#9;&#9;c2.7,11.6,15,20.8,26.5,23.8c14.5,3.8,35.6,0.4,41.3-15.6c0.9-2.7,1.3-5.4,1.5-8.2c0.2-2.4-0.1-4.9-0.7-7.3c-0.3-1-0.8-2-1.3-2.9&#10;&#9;&#9;&#9;C484.9,204.6,490.3,194.8,488.7,184.8z"/>
		<path d="M389.2,222.3c-0.8-0.4-1.6-0.7-2.4-0.9c-1.5-0.4-3-0.4-4.5,0c-0.9,0.2-1.7,0.5-2.5,1c-0.8,0.4-1.5,1-2.2,1.6&#10;&#9;&#9;&#9;c-1.4,1.4-2.2,3.3-2.2,5.3c0,1.4,0.4,2.9,1.2,4.1c0.2,0.6,0.5,1.2,0.8,1.8c1.2,2,3.2,3.4,5.4,4c0.7,0.2,1.5,0.3,2.2,0.3&#10;&#9;&#9;&#9;c0.4,0,0.9-0.1,1.3-0.1c1.2-0.1,2.3-0.5,3.3-1.1c2-1.2,3.4-3.1,4-5.4C394.7,228.7,392.9,224.4,389.2,222.3z"/>
	</g>
	<path class="st7_question-70-283da" d="M92.8,133c-18.9-6.9-42.3,9.8-52.3,37.3s-2.9,55.4,16,62.2c1.5,0.5,3.1,0.9,4.6,1.2c4,14,17.7,10.2,17.7,10.2&#10;&#9;&#9;c-5.4-3.3-6.9-7.3-6.9-10.6c14.8-3.4,29.5-17.8,36.9-38.1C118.8,167.7,111.7,139.9,92.8,133z"/>
	
		<ellipse transform="matrix(0.3428 -0.9394 0.9394 0.3428 -119.5126 199.8035)" class="st5_question-70-283da targetColor" cx="83.1" cy="185.3" rx="53" ry="36.4" style="fill: rgb(104, 225, 253);"/>
	<path class="st5_question-70-283da targetColor" d="M82.9,228.2c0,0-8,10.8,4.4,18.2c0,0-18.5,5.2-18.8-18.2" style="fill: rgb(104, 225, 253);"/>
	<path class="st5_question-70-283da targetColor" d="M479.5,184.8c-2.1-10.8-11.4-18.7-22.4-19c-4.8-0.1-9.5,1.2-13.5,3.7l-0.7,0.2c0-0.2,0-0.5,0-0.7&#10;&#9;&#9;c-1-11.1-10.3-20.6-21.8-20.4c-5.5,0.2-10.7,2.3-14.7,6c-4.4,3.9-6.5,9.8-7.4,15.4c0,0.3-0.1,0.6-0.1,0.9&#10;&#9;&#9;c-4.3-0.4-8.7,0.4-12.7,2.2c-8.4,4-13.2,13.1-11.8,22.4c1.1,8.9,6.6,16.7,14.7,20.6c3.2,1.5,6.7,2.5,10.3,2.7&#10;&#9;&#9;c2.7,11.6,15,20.8,26.5,23.8c14.5,3.8,35.6,0.4,41.3-15.6c0.9-2.7,1.4-5.4,1.5-8.2c0.2-2.4-0.1-4.9-0.8-7.3c-0.3-1-0.8-2-1.3-2.9&#10;&#9;&#9;C475.8,204.6,481.1,194.8,479.5,184.8z" style="fill: rgb(104, 225, 253);"/>
	<path class="st5_question-70-283da targetColor" d="M386,221.5c-0.8-0.4-1.6-0.7-2.4-0.9c-1.5-0.4-3-0.4-4.5,0c-0.9,0.2-1.7,0.5-2.5,1c-0.8,0.4-1.5,1-2.2,1.6&#10;&#9;&#9;c-1.4,1.4-2.2,3.3-2.2,5.3c0,1.4,0.5,2.9,1.2,4.1c0.2,0.6,0.5,1.2,0.9,1.8c1.2,2,3.2,3.4,5.4,4c0.7,0.2,1.5,0.3,2.2,0.3&#10;&#9;&#9;c0.4,0,0.8-0.1,1.3-0.1c1.2-0.1,2.3-0.5,3.3-1.1c2-1.2,3.4-3.1,4-5.4C391.5,227.9,389.7,223.6,386,221.5z" style="fill: rgb(104, 225, 253);"/>
	<path class="st8_question-70-283da" d="M244.8,62c0,0-6.7-7.8-8.5-8s-70.7,20.3-74.6,23.7s-3.8,14.3-2.4,21.4s9.7,44.6,11.4,46.1s6.8,2.7,11.6,1.8"/>
	<path class="st9_question-70-283da" d="M245.8,135.8l-63.5,11.3c-5.6,1-11-2.7-12-8.3l-8.5-48.2c-0.9-5.2,2.4-10.3,7.5-11.6L236,61.8&#10;&#9;&#9;c5.5-1.5,11.1,1.8,12.6,7.2c0.1,0.5,0.2,1,0.3,1.6l5.4,54.3C254.8,130.1,251.1,134.9,245.8,135.8z"/>
	<path class="st9_question-70-283da" d="M254.3,124.8c0,0,1.7,25,0,25.9s-16.5-14.6-16.5-14.6"/>
</g>
<g id="Character_question-70-283da">
	<path class="st10_question-70-283da" d="M365.6,359.7c-0.4-0.5-16.3-22.6-16.7-22.4s-4.9,26.8-4.9,26.8l14.5,10.6"/>
	<path class="st11_question-70-283da" d="M361.1,357.5c0.2,2.5,0.2,7.3-1.3,8.3s-3.1-6.3-5.6-7.4s-7.8,4.7-8.8,7.5s7.1,6.5,7.3,7.2l0.8,2.4&#10;&#9;&#9;c-1.2,5.5-2.7,11-4.5,16.4c-0.8,3-0.8,6.2,0,9.2c0.6,1.6,1.6,2.9,2.8,4.1c2.3,1.8,5.5,1.8,7.8,0c2.3-1.9,4.1-4.4,5.4-7.1&#10;&#9;&#9;c5.2-12.2,8.5-29.7,8.5-29.7l-10.6-13.5C362.9,354.8,361,355,361.1,357.5z"/>
	<path class="st11_question-70-283da" d="M349.8,402.5c0,0,4.8,3.5,9.1-2.6S371,365,371,365l2.5,3.2c0,0-4.8,19.8-6.2,23.7S358.6,415,349.8,402.5z"/>
	<path class="st5_question-70-283da targetColor" d="M329.6,368c-0.3,1.5,16.9,9,16.9,9s11.7-25.4,9.4-43.2L332,313.9" style="fill: rgb(104, 225, 253);"/>
	<path class="st7_question-70-283da" d="M329.6,368c-0.3,1.5,16.9,9,16.9,9s11.7-25.4,9.4-43.2L332,313.9"/>
	<polyline class="st10_question-70-283da" points="329.2,396.5 333.1,371 317.9,376 312.7,400.7 314.9,407.6 &#9;"/>
	<path class="st11_question-70-283da" d="M326.9,396c-1.7,1.8-5.2,5-7,4.6s2.5-6.5,1.7-9.2s-8.7-2.6-11.4-1.5s0,9.6-0.4,10.3l-1.2,2.2&#10;&#9;&#9;c-4.9,2.8-10,5.4-15.2,7.6c-2.8,1.4-5.1,3.6-6.8,6.2c-0.7,1.5-1.1,3.2-1.1,4.8c0.1,2.9,2.3,5.3,5.2,5.7c3,0.4,6,0.1,8.9-0.8&#10;&#9;&#9;c12.5-4.4,27.7-13.7,27.7-13.7l2.9-16.9C329.1,394.7,327.7,394.9,326.9,396C326.9,396,326.9,396,326.9,396L326.9,396z"/>
	<path class="st11_question-70-283da" d="M285.9,417.9c0,0,0.7,5.9,8,5s34-14.5,34-14.5l-0.7,4.1c0,0-17.9,9.8-21.7,11.4S282.6,432.8,285.9,417.9z"/>
	<path class="st5_question-70-283da targetColor" d="M304.9,306.5c0,0,1.2,61.4,4.9,78c0,0,6,6.2,25.8,1c0,0,29.4-80.4,6.5-169.8S304.9,306.5,304.9,306.5z" style="fill: rgb(104, 225, 253);"/>
	<path class="st5_question-70-283da targetColor" d="M299.5,203.3c0,0-31.8,57.8-31.2,87s43,60.5,43,60.5l13.4-146.3" style="fill: rgb(104, 225, 253);"/>
	<path class="st10_question-70-283da" d="M300.3,206.8c-2-0.8-3.9-1.7-5.6-2.9c-1.4-1.5-2.5-3.2-3.2-5.2c-0.3-0.6-0.9-1-1.6-1l0,0l-2.3-3.1&#10;&#9;&#9;c-0.3-0.3-0.6-0.6-1.1-0.6c-0.3-0.4-0.6-0.8-0.9-1.2c-1.1-1.7-3.7-0.2-2.7,1.6l0.4,0.6c-0.4,0.3-0.7,0.7-0.8,1.2&#10;&#9;&#9;c-0.3,0.1-0.6,0.3-0.8,0.6c-0.8,0.1-1.3,0.9-1.2,1.7c0,0.1,0,0.1,0,0.2l0.3,1c-0.5,0.2-0.8,0.8-0.7,1.3c-0.5,0.2-0.9,0.8-0.7,1.4&#10;&#9;&#9;c0.7,5.9,2.3,11.6,4.5,17.1c0.7,1.7,3.3,1.1,3.1-0.4c0.7,1.1,1.4,2.2,2.2,3.3c0.4,0.9,1.5,1.2,2.4,0.8s1.2-1.5,0.8-2.4l-0.5-0.9&#10;&#9;&#9;l0,0c0.8,1.2,1.6,2.4,2.4,3.5c0.5,0.7,1.5,0.9,2.2,0.4c0.6-0.4,0.9-1.3,0.5-2l-1.3-2.7c0.5,0.3,1.8,1.7,2.3,1.4&#10;&#9;&#9;c3-2-0.9-7.3-2.1-9.5l-1.1-2.1c1.5,0.5,3.1,0.8,4.8,0.9c0.9,0,1.6-0.6,1.6-1.5C301.2,207.7,300.9,207.1,300.3,206.8L300.3,206.8z"/>
	<path class="st11_question-70-283da" d="M287.8,219.3c-0.9-2.5-1.7-5-2.5-7.5c-0.1-0.2-0.4-0.4-0.6-0.3c-0.2,0.1-0.3,0.3-0.3,0.5l0,0&#10;&#9;&#9;c0.8,2.5,1.6,5,2.5,7.5C287.1,220.1,288,219.8,287.8,219.3z"/>
	<path class="st11_question-70-283da" d="M292.6,220.2l-4.5-9.4c-0.3-0.5-1.1,0-0.8,0.5l4.5,9.4C292,221.3,292.9,220.8,292.6,220.2z"/>
	<path class="st11_question-70-283da" d="M297.1,219.2c-2.1-3.3-4-6.7-5.7-10.2c-0.3-0.5-1.1,0-0.8,0.5c1.8,3.5,3.7,6.9,5.7,10.2&#10;&#9;&#9;C296.6,220.2,297.4,219.7,297.1,219.2z"/>
	<path class="st9_question-70-283da" d="M313.7,139.9c0,0-17.1-0.9-30.8,3.4S253.3,159.2,255,171c1.7,11.8,19,36.8,19,36.8l21-11.4&#10;&#9;&#9;c0,0-10.2-16.1-8-18.9s6.9-2.9,6.9-2.9l4,38.7c0,0,23.8,5.5,42.4,0l-2.5-14c7.2,0.2,13.4-4.9,14.5-12&#10;&#9;&#9;C354.7,174.5,346.1,141.6,313.7,139.9z"/>
	<path class="st10_question-70-283da" d="M302.8,115.8c-0.5,0.6-0.2,2.8-0.2,3.5c0,2.4,0.2,4.9,0.5,7.3c0.6,5.7,1.7,12,7.5,15c7.1,3.8,14-1.1,16.9-7.3&#10;&#9;&#9;c1.1-2.5,1.6-15.3-1.1-17.7S312.7,104.5,302.8,115.8z"/>
	<path class="st4_question-70-283da" d="M302.4,119.1c-0.4,0.5-5.2-0.3-7.6-4.5s2.7-13.4,8.7-13.3c3.8,0.1,7.5,1.8,10.1,4.6c0,0,5.4-2.7,9.3-0.5&#10;&#9;&#9;c2.3,1.3,4.1,3.2,5.2,5.6c0,0,4.8,0.4,6.1,4.7s-4,18.5-4.8,19s-2.2,0.1-2.8-1.7s-0.1-8-1.7-8.2s-1,2.2-4.4,1.8s-4-5.2-6.6-6.6&#10;&#9;&#9;S306,114.1,302.4,119.1z"/>
	<path class="st11_question-70-283da" d="M307.4,125c-0.1,0.1-0.2,0.3-0.2,0.4c-0.3,0.4-0.2,1.1,0.2,1.4c0,0,0,0,0.1,0c0.4,0.3,1.1,0.2,1.4-0.2&#10;&#9;&#9;c0,0,0,0,0,0C309.8,125.6,308.4,124,307.4,125z"/>
	<path class="st11_question-70-283da" d="M309.5,119.5c-1.2-0.9-3-0.7-3.9,0.5c-0.6,0.7,0.5,1.8,1,1c0.4-0.7,1.3-0.8,2-0.4l0.2,0.1&#10;&#9;&#9;C309.6,121.3,310.3,120.1,309.5,119.5z"/>
	<path class="st11_question-70-283da" d="M312.2,130.3c-0.6-0.2-0.5-0.5-0.4-1.1s0.2-0.9,0.3-1.3l0.6-2.6c0.1-0.4-0.2-0.8-0.6-0.9&#10;&#9;&#9;c-0.4-0.1-0.7,0.1-0.8,0.5c-0.4,1.6-0.8,3.2-1,4.8c-0.1,1.1,0.6,1.7,1.6,2S313.1,130.6,312.2,130.3z"/>
	<path class="st11_question-70-283da" d="M317.6,125.1c-0.6,0-1.1,0.5-1.1,1.2c0,0,0,0.1,0,0.1c-0.1,0.5,0.2,1,0.7,1.2c0.7,0.1,1.3-0.3,1.5-1&#10;&#9;&#9;C318.8,126,318.3,125.3,317.6,125.1C317.6,125.1,317.6,125.1,317.6,125.1z"/>
	<path class="st11_question-70-283da" d="M320.4,119.8c-1.4-0.8-3.1-0.7-4.4,0.2c-0.8,0.5,0,1.8,0.7,1.2c0.9-0.6,2-0.6,2.9-0.1c0.4,0.2,0.8,0.1,1-0.3&#10;&#9;&#9;c0,0,0,0,0-0.1C320.8,120.4,320.7,120,320.4,119.8z"/>
	<path class="st11_question-70-283da" d="M315.5,131.3c-1,0.5-1.9,0.9-2.9,1.2s-0.5,1.7,0.4,1.5c1.1-0.4,2.2-0.9,3.3-1.4&#10;&#9;&#9;C317.1,132.2,316.4,131,315.5,131.3z"/>
	<path class="st10_question-70-283da" d="M322.7,141.5c-0.9-1.9-3.2-1.1-4.7-0.4c-1.8,1-3.6,2.2-5.2,3.5c-2.3-1.6-4.6-3.1-7.1-4.5&#10;&#9;&#9;c-1.4-0.8-2.8-1.5-4.2-2.2c-1.2-0.6-2.5-1.3-3.6-0.1c-1.8,2.1,1.3,4,3.3,5.1c-0.8,0.2-1.4,0.7-1.8,1.4c-0.5,0.9-0.5,1.9,0.1,2.8&#10;&#9;&#9;l0.1,0.2c-0.9,0.3-1.7,1-2.1,1.9c-0.5,1-0.3,2.1,0.4,2.9c0.1,0.1,0.3,0.3,0.4,0.4c-0.1,0.1-0.3,0.2-0.4,0.3&#10;&#9;&#9;c-0.7,0.7-1.1,1.7-0.9,2.6c0.3,1.5,1.5,2.6,3,2.8c0,0.7,1.5,1.7,2.3,2c0.4,0.1,0.8,0.2,1.3,0.2c0.2,0.8,0.3,1.6,0.5,2.4&#10;&#9;&#9;c1.7-0.7,3.5-1.3,5.3-1.9c0.1,0,0.3,0,0.5,0l1.7-0.8c0.3-0.2,0.7-0.2,1,0c1.2-0.8,2.4-1.7,3.5-2.6c-0.1-0.8-0.2-1.5-0.2-2.2&#10;&#9;&#9;c0-0.1,0-0.3-0.1-0.4v-6l0.3-0.2c1.8-0.7,3.4-1.6,4.8-2.9C321.8,144.9,323.5,143.2,322.7,141.5z"/>
	<path class="st11_question-70-283da" d="M306.2,145.6l-4.9-2.9c-0.2-0.1-0.5-0.1-0.6,0.2c0,0,0,0,0,0c-0.1,0.2-0.1,0.5,0.2,0.6l4.9,2.9&#10;&#9;&#9;c0.2,0.1,0.5,0.1,0.6-0.2C306.5,146,306.4,145.7,306.2,145.6L306.2,145.6z"/>
	<path class="st11_question-70-283da" d="M302,148.1c-0.7-0.2-1.3-0.6-1.8-1c-0.5-0.4-1.1,0.3-0.7,0.7c0.7,0.5,1.4,1,2.2,1.2&#10;&#9;&#9;C302.3,149.2,302.6,148.3,302,148.1z"/>
	<path class="st11_question-70-283da" d="M301.2,153.1c-0.9-0.3-1.8-0.7-2.6-1.1c-0.5-0.3-1,0.5-0.5,0.8c0.9,0.5,1.9,0.9,3,1.2&#10;&#9;&#9;C301.5,154.2,301.7,153.3,301.2,153.1z"/>
	<path class="st11_question-70-283da" d="M343.5,178.7c-10.8-3.7-20-11.1-26-20.8c-0.3-0.5-0.9-0.7-1.4-0.4l0,0c-0.2-0.5-0.7-0.7-1.1-0.6h-0.1&#10;&#9;&#9;c-6.5,2.6-12.8,5.7-18.9,9.1c-0.5,0.2-0.7,0.9-0.4,1.3c0,0,0,0,0,0.1l0.1,0.1c3,18.7,19.2,32.5,38.1,32.3c0.6,0,1.1-0.5,1.1-1.1&#10;&#9;&#9;c0-0.6-0.5-1.1-1.1-1.1c0,0,0,0,0,0c-17.8,0.2-33.1-12.6-36-30.2c5.7-3.2,11.6-6,17.6-8.5l0.2-0.1c6.3,10.2,16,17.9,27.4,21.8&#10;&#9;&#9;C344.3,181.3,344.9,179.2,343.5,178.7z"/>
	<path class="st11_question-70-283da" d="M307.9,272.5c0-8.4,0.1-16.8,0.3-25.2c-0.1-0.9-0.9-1.5-1.7-1.4c-0.7,0.1-1.3,0.7-1.4,1.4&#10;&#9;&#9;c-0.5,29.8-0.4,59.5,0.4,89.3c0.2,8.4,0.5,16.8,0.8,25.2c0.1,2,3.2,2,3.1,0C308.1,332,307.7,302.2,307.9,272.5z"/>
	<path class="st11_question-70-283da" d="M323.1,141.1c-2.2-3.5-8.7,1.7-10.7,3.2c-0.6,0.5,0.2,1.4,0.9,0.9c1-0.8,2.1-1.4,3.1-2.1&#10;&#9;&#9;c1.4-0.9,2.9-2.6,4.8-2.1c2.9,0.7,0.7,3.7-0.6,4.8c-0.6,0.4-1.1,0.8-1.8,1.1c-1,0.7-2.1,1.2-3.3,1.7c-0.7,0.3-0.4,1.4,0.3,1.2&#10;&#9;&#9;C318.3,148.6,325.4,144.7,323.1,141.1z"/>
	<path class="st11_question-70-283da" d="M313.1,144.4c-3.2-2.3-8.9-5.8-12.3-7.8c-0.5-0.3-1.3,0.3-0.8,0.6c3.4,2,9.4,5.8,12.6,8&#10;&#9;&#9;C313.1,145.6,313.7,144.8,313.1,144.4z"/>
</g>
</svg>